<?xml version="1.0" standalone="no"?>
<!DOCTYPE svg PUBLIC "-//W3C//DTD SVG 20010904//EN"
 "http://www.w3.org/TR/2001/REC-SVG-20010904/DTD/svg10.dtd">
<svg version="1.0" xmlns="http://www.w3.org/2000/svg"
 width="1311.000000pt" height="1311.000000pt" viewBox="0 0 1311.000000 1311.000000"
 preserveAspectRatio="xMidYMid meet">
<metadata>
Created by potrace 1.11, written by Peter Selinger 2001-2013
</metadata>
<g transform="translate(0.000000,1311.000000) scale(0.100000,-0.100000)"
fill="#000000" stroke="none">
<path d="M2613 12948 c-314 -434 -529 -856 -692 -1361 -72 -222 -147 -545
-176 -757 -3 -25 -8 -56 -10 -70 -3 -14 -7 -54 -10 -90 -3 -36 -7 -74 -9 -86
-21 -109 -22 -680 -1 -834 2 -14 6 -50 9 -80 11 -96 22 -178 32 -242 2 -15 14
-74 25 -130 11 -57 23 -114 25 -128 31 -158 204 -692 235 -725 15 -16 11 -31
-66 -223 -130 -329 -211 -573 -301 -912 -109 -407 -166 -728 -192 -1065 -16
-214 -7 -950 13 -1095 2 -14 6 -52 9 -85 32 -300 117 -724 211 -1045 485
-1656 1638 -3043 3168 -3812 148 -75 350 -168 355 -164 1 2 4 50 7 107 9 165
31 371 51 461 3 13 9 43 14 68 14 74 20 101 41 185 12 44 25 98 31 120 14 61
99 309 109 319 5 6 9 16 9 24 0 13 11 39 88 207 59 129 153 304 213 395 16 25
32 53 35 63 4 9 10 17 14 17 4 0 11 10 17 23 19 41 220 301 314 407 323 362
684 638 1127 862 106 53 207 102 225 107 18 5 75 26 127 46 101 39 262 92 320
105 476 108 1001 284 1423 479 122 56 391 193 418 212 15 10 30 19 34 19 4 0
82 45 175 100 221 131 479 304 650 437 193 149 322 258 479 402 116 105 411
403 411 413 0 5 -5 8 -12 8 -6 0 -52 18 -102 41 -50 22 -104 46 -121 53 -16 8
-64 29 -105 49 -41 19 -118 54 -170 78 -102 46 -636 315 -735 369 -33 18 -86
48 -118 66 -32 19 -60 34 -62 34 -2 0 -58 32 -125 70 -67 39 -123 70 -125 70
-2 0 -53 32 -115 71 -524 332 -923 695 -1346 1224 -147 183 -324 428 -589 815
-223 325 -387 549 -529 720 -98 119 -135 158 -266 288 -263 262 -543 448 -865
576 -38 16 -79 32 -90 37 -62 26 -318 95 -420 114 -80 14 -217 34 -275 40 -36
4 -76 8 -90 10 -14 2 -81 7 -150 10 -75 5 -128 12 -132 19 -31 50 -270 382
-331 461 -4 5 -64 84 -133 174 -104 136 -222 286 -290 370 -38 47 -189 230
-207 251 -12 14 -58 68 -102 120 -44 52 -87 102 -95 110 -8 8 -30 33 -49 55
-33 39 -162 184 -211 236 -14 15 -56 62 -95 104 -200 222 -782 805 -802 805
-6 0 -52 -55 -100 -122z"/>
</g>
</svg>
