<?xml version="1.0" encoding="utf-8"?>
<!-- Generator: Adobe Illustrator 21.1.0, SVG Export Plug-In . SVG Version: 6.00 Build 0)  -->
<svg version="1.1" id="Шар_1" xmlns="http://www.w3.org/2000/svg" xmlns:xlink="http://www.w3.org/1999/xlink" x="0px" y="0px"
	 viewBox="0 0 386.9 402.9" style="enable-background:new 0 0 386.9 402.9;" xml:space="preserve">
<style type="text/css">
	.st0{clip-path:url(#SVGID_2_);}
	.st1{clip-path:url(#SVGID_6_);}
	.st2{clip-path:url(#SVGID_10_);}
	.st3{clip-path:url(#SVGID_14_);}
	.st4{clip-path:url(#SVGID_18_);}
	.st5{clip-path:url(#SVGID_22_);}
	.st6{clip-path:url(#SVGID_27_);}
	.st7{clip-path:url(#SVGID_28_);}
	.st8{clip-path:url(#SVGID_33_);}
	.st9{clip-path:url(#SVGID_34_);}
	.st10{clip-path:url(#SVGID_38_);}
	.st11{clip-path:url(#SVGID_42_);}
	.st12{clip-path:url(#SVGID_46_);}
	.st13{clip-path:url(#SVGID_78_);}
	.st14{fill:#301D13;}
</style>
<g>
	<g>
		<defs>
			<path id="SVGID_1_" d="M160.3,318c-0.1-0.1-0.2-0.1-0.2-0.2c-20.9-20.1-32.4-47.7-32.4-76.1c0-7,0.7-14.1,2.1-21.1l0,0
				c3.2-15.5,9.7-29.9,19-42.1c2.5,1.1,5,2.1,7.6,3.1l51.4,45.6l3.9,1.1c-12.3,3.2-23.5,4.7-33.7,4.8h0c-3.1,0.3-6.2,0.4-9.3,0.4
				c-7.9,0-15.8-1-23.4-2.8c15.2,4.5,30.8,6.7,46.3,6.7c12.5,0,24.9-1.4,37-4.2C189.1,242.5,161.1,277.4,160.3,318"/>
		</defs>
		<clipPath id="SVGID_2_">
			<use xlink:href="#SVGID_1_"  style="overflow:visible;"/>
		</clipPath>
		<g class="st0">
			<defs>
				<rect id="SVGID_3_" x="127.6" y="178.3" width="100.8" height="139.6"/>
			</defs>
			<clipPath id="SVGID_4_">
				<use xlink:href="#SVGID_3_"  style="overflow:visible;"/>
			</clipPath>
			<g transform="matrix(1 0 0 1 -7.629395e-06 0)" style="clip-path:url(#SVGID_4_);">
				
					<image style="overflow:visible;" width="232" height="316" xlink:href="BAF1F0BB.jpg"  transform="matrix(0.4468 0 0 -0.4468 126.4928 318.7387)">
				</image>
			</g>
		</g>
	</g>
	<g>
		<defs>
			<path id="SVGID_5_" d="M151.7,70.2c0.4,0,0.8,0,1.1,0c-0.3,0-0.6,0-1,0H151.7L151.7,70.2L151.7,70.2z"/>
		</defs>
		<clipPath id="SVGID_6_">
			<use xlink:href="#SVGID_5_"  style="overflow:visible;"/>
		</clipPath>
		<g class="st1">
			<defs>
				<rect id="SVGID_7_" x="151.7" y="70.2" width="1.1" height="0"/>
			</defs>
			<clipPath id="SVGID_8_">
				<use xlink:href="#SVGID_7_"  style="overflow:visible;"/>
			</clipPath>
			<g style="clip-path:url(#SVGID_8_);">
				
					<image style="overflow:visible;" width="8" height="4" xlink:href="BAF1F0B9.jpg"  transform="matrix(0.4468 0 0 -0.4468 150.6209 71.1519)">
				</image>
			</g>
		</g>
	</g>
	<g>
		<defs>
			<path id="SVGID_9_" d="M274.1,194.2c-0.7-0.3-1.4-0.6-2-0.8c-0.6-0.2-1.1-0.5-1.7-0.7c-0.2-0.1-0.3-0.1-0.5-0.2
				c-0.6-0.3-1.2-0.5-1.8-0.8l0,0c-1.3-0.6-2.6-1.2-3.9-1.8l0,0c-0.5-0.2-1-0.5-1.5-0.7c-0.8-0.4-1.6-0.8-2.4-1.1
				c-0.6-0.3-1.2-0.6-1.8-0.9c-0.6-0.3-1.2-0.6-1.8-0.9c-0.4-0.2-0.9-0.4-1.3-0.7c-0.4-0.2-0.9-0.4-1.3-0.7l-0.1,0
				c-0.4-0.2-0.9-0.5-1.3-0.7c-0.6-0.3-1.2-0.6-1.8-0.9l-0.2-0.1c-0.5-0.3-1-0.6-1.5-0.8c-0.7-0.4-1.4-0.8-2.1-1.2
				c-0.5-0.3-1-0.5-1.4-0.8c-0.3-0.2-0.6-0.3-0.9-0.5c-0.5-0.3-1-0.6-1.4-0.8c-0.6-0.4-1.3-0.7-1.9-1.1c-0.2-0.1-0.3-0.2-0.5-0.3
				c-0.4-0.3-0.9-0.5-1.3-0.8l0,0l0,0c-18.1-11.1-29-22-37.3-31.7c-4.2-5-8-10.1-12-15c-0.4-0.5-0.8-1-1.2-1.4l0,0
				c-4.8-5.7-10-10.9-16.5-14.7l-0.1,0c-0.3-0.2-0.6-0.4-0.9-0.5l0,0c-0.3-0.2-0.7-0.4-1-0.5l-0.1,0c-0.3-0.2-0.6-0.3-1-0.5
				l-0.2-0.1c-0.3-0.1-0.5-0.3-0.8-0.4l0,0l0,0c0.3,0.1,0.5,0.2,0.8,0.4l0.2,0.1l0,0c0.3,0.2,0.6,0.3,1,0.5l0,0l0.1,0l0,0
				c0.3,0.2,0.7,0.4,1,0.5l0,0l0,0l0,0c0.3,0.2,0.6,0.3,0.9,0.5l0,0l0.1,0c6.6,3.8,11.7,9,16.5,14.7l0,0l0,0
				c0.4,0.5,0.8,0.9,1.2,1.4l0,0l0,0l0,0c-10-20.9-21.6-40.9-34.8-59.9c66.4,1.6,59.1,60.7,117.4,94.3c11.2,6.5,24.4,13.3,39.3,19.6
				C300.1,189.3,287.3,192.7,274.1,194.2L274.1,194.2 M312.2,184.1C312.2,184.1,312.2,184.1,312.2,184.1L312.2,184.1
				C312.2,184.1,312.2,184.1,312.2,184.1"/>
		</defs>
		<clipPath id="SVGID_10_">
			<use xlink:href="#SVGID_9_"  style="overflow:visible;"/>
		</clipPath>
		<g class="st2">
			<defs>
				<rect id="SVGID_11_" x="155.4" y="70.2" width="156.8" height="124"/>
			</defs>
			<clipPath id="SVGID_12_">
				<use xlink:href="#SVGID_11_"  style="overflow:visible;"/>
			</clipPath>
			<g style="clip-path:url(#SVGID_12_);">
				
					<image style="overflow:visible;" width="356" height="282" xlink:href="BAF1F0BF.jpg"  transform="matrix(0.4468 0 0 -0.4468 154.6066 195.4422)">
				</image>
			</g>
		</g>
	</g>
	<g>
		<defs>
			<path id="SVGID_13_" d="M155.4,70.2c-0.3,0-0.7,0-1,0C154.8,70.2,155.1,70.2,155.4,70.2L155.4,70.2L155.4,70.2z"/>
		</defs>
		<clipPath id="SVGID_14_">
			<use xlink:href="#SVGID_13_"  style="overflow:visible;"/>
		</clipPath>
		<g class="st3">
			<defs>
				<rect id="SVGID_15_" x="154.4" y="70.1" width="1" height="0"/>
			</defs>
			<clipPath id="SVGID_16_">
				<use xlink:href="#SVGID_15_"  style="overflow:visible;"/>
			</clipPath>
			<g style="clip-path:url(#SVGID_16_);">
				
					<image style="overflow:visible;" width="8" height="4" xlink:href="BAF1F0B8.jpg"  transform="matrix(0.4468 0 0 -0.4468 153.3536 71.1467)">
				</image>
			</g>
		</g>
	</g>
	<g>
		<defs>
			<path id="SVGID_17_" d="M165,110.5c0.3,0.1,0.6,0.2,0.9,0.3C165.6,110.7,165.3,110.6,165,110.5L165,110.5L165,110.5z"/>
		</defs>
		<clipPath id="SVGID_18_">
			<use xlink:href="#SVGID_17_"  style="overflow:visible;"/>
		</clipPath>
		<g class="st4">
			<defs>
				<rect id="SVGID_19_" x="165" y="110.5" width="0.9" height="0.3"/>
			</defs>
			<clipPath id="SVGID_20_">
				<use xlink:href="#SVGID_19_"  style="overflow:visible;"/>
			</clipPath>
			<g style="clip-path:url(#SVGID_20_);">
				
					<image style="overflow:visible;" width="8" height="5" xlink:href="BAF1F0B6.jpg"  transform="matrix(0.4468 0 0 -0.4468 163.7562 111.8446)">
				</image>
			</g>
		</g>
	</g>
	<g>
		<defs>
			<path id="SVGID_21_" d="M191.4,237.1c-15.5,0-31-2.2-46.3-6.7c7.6,1.9,15.5,2.8,23.4,2.8c3.1,0,6.2-0.1,9.3-0.4h0
				c10.2-0.1,21.4-1.6,33.7-4.8c0.6-0.2,1.3-0.3,1.9-0.5c22.3-6,43.2-17.3,60.7-33.4c0,0,0,0,0,0c0,0,0,0,0,0l0,0l0,0
				c13.1-1.5,25.9-4.9,38-10.1l0,0l0,0c0,0,0,0,0,0c-22.9,24.9-52.2,41.5-83.7,48.8C216.3,235.7,203.9,237.1,191.4,237.1"/>
		</defs>
		<clipPath id="SVGID_22_">
			<use xlink:href="#SVGID_21_"  style="overflow:visible;"/>
		</clipPath>
		<g class="st5">
			<defs>
				<rect id="SVGID_23_" x="145.2" y="184.1" width="167" height="53"/>
			</defs>
			<clipPath id="SVGID_24_">
				<use xlink:href="#SVGID_23_"  style="overflow:visible;"/>
			</clipPath>
			<g style="clip-path:url(#SVGID_24_);">
				
					<image style="overflow:visible;" width="380" height="123" xlink:href="BAF1F0B7.jpg"  transform="matrix(0.4468 0 0 -0.4468 144.3461 238.4599)">
				</image>
			</g>
		</g>
	</g>
	<g>
		<defs>
			<path id="SVGID_25_" d="M160.3,318c-31.8-13.7-58.3-38.1-74.3-69.6c-14.2-27.8-19.1-59-14.7-89.2l0-0.1
				c2.6-14.3,6.8-28.4,12.6-42l66.5,59c-10.1,12.8-17.3,27.9-20.7,44.3C122.5,256.1,134,292.9,160.3,318"/>
		</defs>
		<defs>
			<rect id="SVGID_26_" x="69.7" y="5.2" width="242.4" height="312.7"/>
		</defs>
		<clipPath id="SVGID_27_">
			<use xlink:href="#SVGID_25_"  style="overflow:visible;"/>
		</clipPath>
		<clipPath id="SVGID_28_" class="st6">
			<use xlink:href="#SVGID_26_"  style="overflow:visible;"/>
		</clipPath>
		<g class="st7">
			<defs>
				<rect id="SVGID_29_" x="69.7" y="116.9" width="90.7" height="201.1"/>
			</defs>
			<clipPath id="SVGID_30_">
				<use xlink:href="#SVGID_29_"  style="overflow:visible;"/>
			</clipPath>
			<g style="clip-path:url(#SVGID_30_);">
				
					<image style="overflow:visible;" width="208" height="454" xlink:href="BAF1F0C7.jpg"  transform="matrix(0.4468 0 0 -0.4468 69.1944 318.8451)">
				</image>
			</g>
		</g>
	</g>
	<g>
		<defs>
			<path id="SVGID_31_" d="M160.3,318c-31.8-13.7-58.3-38.1-74.3-69.6c-14.2-27.8-19.1-59-14.7-89.2l0-0.1
				c2.6-14.3,6.8-28.4,12.6-42l0,0l0,0c1.3,3,2.8,6,4.4,9c0.3,0.6,0.7,1.2,1,1.8c0.5,0.9,1,1.8,1.6,2.6c0.2,0.3,0.4,0.6,0.5,0.9
				c0.9,1.4,1.9,2.9,2.9,4.3c0.4,0.6,0.8,1.1,1.2,1.7c0.4,0.6,0.8,1.1,1.2,1.7c1.5,1.9,3,3.9,4.7,5.8h0l0,0
				c-3.3,13.5-4.9,27.1-4.8,40.5C96.6,236.2,119.5,285.2,160.3,318L160.3,318 M127.6,241.6L127.6,241.6c0-7,0.7-14.1,2.1-21.1
				C128.3,227.5,127.6,234.6,127.6,241.6"/>
		</defs>
		<defs>
			<rect id="SVGID_32_" x="69.7" y="5.2" width="242.4" height="312.7"/>
		</defs>
		<clipPath id="SVGID_33_">
			<use xlink:href="#SVGID_31_"  style="overflow:visible;"/>
		</clipPath>
		<clipPath id="SVGID_34_" class="st8">
			<use xlink:href="#SVGID_32_"  style="overflow:visible;"/>
		</clipPath>
		<g class="st9">
			<defs>
				<rect id="SVGID_35_" x="69.7" y="116.9" width="90.7" height="201.1"/>
			</defs>
			<clipPath id="SVGID_36_">
				<use xlink:href="#SVGID_35_"  style="overflow:visible;"/>
			</clipPath>
			<g style="clip-path:url(#SVGID_36_);">
				
					<image style="overflow:visible;" width="208" height="454" xlink:href="BAF1F0C9.jpg"  transform="matrix(0.4468 0 0 -0.4468 69.1944 318.8451)">
				</image>
			</g>
		</g>
	</g>
	<g>
		<defs>
			<path id="SVGID_37_" d="M106.5,86.3c-6.1-17.2-9.2-35.4-9.2-53.9c0-9,0.8-18.2,2.3-27.2l0,0c-15.7,20-24.3,44.9-24.3,69.9
				c0-25.1,8.6-50,24.3-69.9c15.2,14.4,29.2,30,42.1,46.4c4.7,6.1,9.3,12.3,13.7,18.6c-0.3,0-0.7,0-1,0c-0.2,0-0.5,0-0.7,0
				c-0.3,0-0.6,0-0.9,0h0c-0.3,0-0.6,0-1,0l-0.2,0C135.6,70.6,119.7,76.1,106.5,86.3"/>
		</defs>
		<clipPath id="SVGID_38_">
			<use xlink:href="#SVGID_37_"  style="overflow:visible;"/>
		</clipPath>
		<g class="st10">
			<defs>
				<rect id="SVGID_39_" x="75.3" y="5.2" width="80.1" height="81.1"/>
			</defs>
			<clipPath id="SVGID_40_">
				<use xlink:href="#SVGID_39_"  style="overflow:visible;"/>
			</clipPath>
			<g style="clip-path:url(#SVGID_40_);">
				
					<image style="overflow:visible;" width="184" height="186" xlink:href="BAF1F0CB.jpg"  transform="matrix(0.4468 0 0 -0.4468 74.6971 87.4922)">
				</image>
			</g>
		</g>
	</g>
	<g>
		<defs>
			<path id="SVGID_41_" d="M190.3,130.1L190.3,130.1c-0.4-0.5-0.8-1-1.2-1.4l0,0l0,0c-4.8-5.7-10-10.9-16.5-14.7l-0.1,0l0,0
				c-0.3-0.2-0.6-0.4-0.9-0.5l0,0l0,0l0,0c-0.3-0.2-0.7-0.4-1-0.5l0,0l-0.1,0l0,0c-0.3-0.2-0.6-0.3-1-0.5l0,0l-0.2-0.1
				c-0.3-0.1-0.5-0.3-0.8-0.4l0,0c-0.1,0-0.2-0.1-0.3-0.1l0,0c-0.3-0.1-0.6-0.3-0.9-0.4l-0.1-0.1c-0.4-0.2-0.7-0.3-1.1-0.4
				c-0.3-0.1-0.6-0.2-0.9-0.3c-0.1,0-0.2-0.1-0.3-0.1c-0.3-0.1-0.7-0.2-1-0.3c-0.3-0.1-0.6-0.2-0.9-0.3c0,0,0,0,0,0
				c-0.3-0.1-0.6-0.2-0.9-0.2c-0.2-0.1-0.4-0.1-0.6-0.2c-0.2,0-0.4-0.1-0.6-0.2c-0.4-0.1-0.7-0.2-1.1-0.2c-0.3-0.1-0.6-0.1-0.9-0.2
				c-0.1,0-0.1,0-0.2,0l0,0c-0.3-0.1-0.7-0.1-1-0.2l-0.2,0c-1.1-0.2-2.3-0.3-3.5-0.5c-0.4,0-0.8-0.1-1.2-0.1l0,0
				c-1.3-0.1-2.6-0.2-3.9-0.2c-10,0-19.8,3-28,8.5c-5.7-9.5-10.5-19.6-14.1-30c13.2-10.2,29-15.7,45.1-16.1l0.2,0c0.3,0,0.6,0,1,0h0
				c0.3,0,0.6,0,0.9,0c0.2,0,0.5,0,0.7,0c0.3,0,0.7,0,1,0C168.6,89.1,180.3,109.1,190.3,130.1L190.3,130.1"/>
		</defs>
		<clipPath id="SVGID_42_">
			<use xlink:href="#SVGID_41_"  style="overflow:visible;"/>
		</clipPath>
		<g class="st11">
			<defs>
				<rect id="SVGID_43_" x="106.5" y="70.1" width="83.7" height="59.9"/>
			</defs>
			<clipPath id="SVGID_44_">
				<use xlink:href="#SVGID_43_"  style="overflow:visible;"/>
			</clipPath>
			<g style="clip-path:url(#SVGID_44_);">
				
					<image style="overflow:visible;" width="192" height="138" xlink:href="4F7CB18.jpg"  transform="matrix(0.4468 0 0 -0.4468 105.7269 130.9509)">
				</image>
			</g>
		</g>
	</g>
	<g>
		<defs>
			<path id="SVGID_45_" d="M246.3,195.4c-15.3,0-30.7-1.1-45.8-3.2c15.1,2.1,30.4,3.2,45.6,3.2C246.1,195.4,246.2,195.4,246.3,195.4
				c0.1,0,0.1,0,0.2,0c8.2,0,16.4-0.3,24.7-0.9l0,0l0,0c0,0,0,0,0,0C262.8,195.1,254.5,195.4,246.3,195.4 M259.8,194.9
				c-45.1,0-88.4-18.8-119.3-52.2c-7.5-8.2-14.2-17-19.8-26.4c8.2-5.5,18-8.5,28-8.5c1.3,0,2.6,0,3.9,0.2l0,0c0.4,0,0.8,0.1,1.2,0.1
				c1.2,0.1,2.3,0.3,3.5,0.5l0.2,0c0.4,0.1,0.7,0.1,1,0.2l0,0c0.1,0,0.1,0,0.2,0c0.3,0.1,0.6,0.1,0.9,0.2c0.4,0.1,0.7,0.2,1.1,0.2
				c0.2,0.1,0.4,0.1,0.6,0.2c0.2,0.1,0.4,0.1,0.6,0.2c0.3,0.1,0.6,0.2,0.9,0.2c0,0,0,0,0,0c0.3,0.1,0.6,0.2,0.9,0.3
				c0.3,0.1,0.7,0.2,1,0.3c0.1,0,0.2,0.1,0.3,0.1c0.3,0.1,0.6,0.2,0.9,0.3c0.4,0.1,0.8,0.3,1.1,0.4l0.1,0.1c0.3,0.1,0.6,0.2,0.9,0.4
				l0,0c0.1,0,0.2,0.1,0.3,0.1l0,0c0.3,0.1,0.5,0.2,0.8,0.4l0.2,0.1c0.3,0.2,0.6,0.3,1,0.5l0.1,0c0.3,0.2,0.7,0.4,1,0.5l0,0
				c0.3,0.2,0.6,0.3,0.9,0.5l0.1,0c6.6,3.8,11.7,9,16.5,14.7l0,0c0.4,0.5,0.8,0.9,1.2,1.4c4,4.9,7.8,10.1,12,15
				c8.3,9.7,19.3,20.5,37.3,31.7l0,0l0,0c0.4,0.3,0.9,0.5,1.3,0.8c0.2,0.1,0.3,0.2,0.5,0.3c0.6,0.4,1.2,0.7,1.9,1.1
				c0.5,0.3,1,0.6,1.4,0.8c0.3,0.2,0.6,0.3,0.9,0.5c0.5,0.3,1,0.5,1.4,0.8c0.7,0.4,1.4,0.8,2.1,1.2c0.5,0.3,1,0.6,1.5,0.8l0.2,0.1
				c0.6,0.3,1.2,0.6,1.8,0.9c0.4,0.2,0.9,0.5,1.3,0.7l0.1,0c0.4,0.2,0.9,0.5,1.3,0.7c0.4,0.2,0.9,0.4,1.3,0.7
				c0.6,0.3,1.2,0.6,1.8,0.9c0.6,0.3,1.2,0.6,1.8,0.9c0.8,0.4,1.6,0.8,2.4,1.1c0.5,0.2,1,0.5,1.5,0.7l0,0c1.3,0.6,2.6,1.2,3.9,1.8
				l0,0c0.6,0.3,1.2,0.5,1.8,0.8c0.2,0.1,0.3,0.1,0.5,0.2c0.6,0.2,1.1,0.5,1.7,0.7c0.7,0.3,1.3,0.6,2,0.8c0,0,0,0,0,0c0,0,0,0,0,0
				c0,0,0,0,0,0c0,0,0,0,0,0l0,0c-1,0.1-2,0.2-3.1,0.2C267.3,194.7,263.5,194.9,259.8,194.9"/>
		</defs>
		<clipPath id="SVGID_46_">
			<use xlink:href="#SVGID_45_"  style="overflow:visible;"/>
		</clipPath>
		<g class="st12">
			<defs>
				<rect id="SVGID_47_" x="120.7" y="107.7" width="153.5" height="87.6"/>
			</defs>
			<clipPath id="SVGID_48_">
				<use xlink:href="#SVGID_47_"  style="overflow:visible;"/>
			</clipPath>
			<g style="clip-path:url(#SVGID_48_);">
				
					<image style="overflow:visible;" width="348" height="200" xlink:href="4F7CB1F.jpg"  transform="matrix(0.4468 0 0 -0.4468 120.0373 196.5784)">
				</image>
			</g>
		</g>
	</g>
	<g>
		<defs>
			<path id="SVGID_49_" d="M246.3,195.4c-0.1,0-0.1,0-0.2,0h0.4C246.4,195.4,246.3,195.4,246.3,195.4"/>
		</defs>
		<clipPath id="SVGID_50_">
			<use xlink:href="#SVGID_49_"  style="overflow:visible;"/>
		</clipPath>
		<g style="clip-path:url(#SVGID_50_);">
			
				<image style="overflow:visible;" width="4" height="3" xlink:href="4F7CB19.jpg"  transform="matrix(0.5138 0 0 0.5361 245.0829 194.6165)">
			</image>
		</g>
	</g>
	<g>
		<defs>
			<path id="SVGID_51_" d="M75.3,75.3c0-0.1,0-0.1,0-0.2c0-25.1,8.6-50,24.3-69.9l0,0C84,25.1,75.3,49.9,75.3,75V75.3"/>
		</defs>
		<clipPath id="SVGID_52_">
			<use xlink:href="#SVGID_51_"  style="overflow:visible;"/>
		</clipPath>
		<g style="clip-path:url(#SVGID_52_);">
			
				<image style="overflow:visible;" width="57" height="159" xlink:href="4F7CB1B.jpg"  transform="matrix(0.4476 0 0 0.4485 74.6317 4.7321)">
			</image>
		</g>
	</g>
	<g>
		<defs>
			<path id="SVGID_53_" d="M101.4,144.8L101.4,144.8L101.4,144.8L101.4,144.8c-1.6-1.9-3.2-3.8-4.7-5.8c-0.4-0.6-0.8-1.1-1.2-1.7
				c-0.4-0.6-0.8-1.1-1.2-1.7c-1-1.4-1.9-2.8-2.9-4.3c-0.2-0.3-0.4-0.6-0.5-0.9c-0.5-0.9-1.1-1.7-1.6-2.6c-0.3-0.6-0.7-1.2-1-1.8
				c-1.6-3-3.1-6-4.4-9l0,0l0,0c1.3,3,2.8,6,4.4,9c0.3,0.6,0.7,1.2,1,1.8c0.5,0.9,1,1.8,1.6,2.6c0.2,0.3,0.4,0.6,0.5,0.9
				c0.9,1.4,1.9,2.9,2.9,4.3c0.4,0.6,0.8,1.1,1.2,1.7c0.4,0.6,0.8,1.1,1.2,1.7C98.2,141,99.7,142.9,101.4,144.8L101.4,144.8
				L101.4,144.8L101.4,144.8L101.4,144.8"/>
		</defs>
		<clipPath id="SVGID_54_">
			<use xlink:href="#SVGID_53_"  style="overflow:visible;"/>
		</clipPath>
		<g transform="matrix(1 0 0 1 0 0)" style="clip-path:url(#SVGID_54_);">
			
				<image style="overflow:visible;" width="42" height="65" xlink:href="4F7CB06.jpg"  transform="matrix(0.4479 0 0 0.4509 83.1224 116.4291)">
			</image>
		</g>
	</g>
	<g>
		<defs>
			<path id="SVGID_55_" d="M83.9,117.1c-5.8-13.4-8.6-27.6-8.6-41.8l0,0C75.3,89.5,78.1,103.7,83.9,117.1
				c4.8-11.4,12.2-21.9,22-30.3c0.2-0.2,0.4-0.3,0.6-0.5l0,0c-0.2,0.2-0.4,0.3-0.6,0.5C96.1,95.2,88.7,105.7,83.9,117.1L83.9,117.1"
				/>
		</defs>
		<clipPath id="SVGID_56_">
			<use xlink:href="#SVGID_55_"  style="overflow:visible;"/>
		</clipPath>
		<g transform="matrix(1 0 0 1 0 0)" style="clip-path:url(#SVGID_56_);">
			
				<image style="overflow:visible;" width="73" height="97" xlink:href="4F7CB07.jpg"  transform="matrix(0.4474 0 0 0.4496 74.6317 74.4309)">
			</image>
		</g>
	</g>
	<g>
		<defs>
			<path id="SVGID_57_" d="M83.9,117.1c-5.8-13.4-8.6-27.6-8.6-41.8V75c0-25,8.7-49.8,24.3-69.8c-1.5,9.1-2.3,18.2-2.3,27.2
				c0,18.4,3.1,36.6,9.2,53.9c-0.2,0.2-0.4,0.3-0.6,0.5C96.1,95.2,88.7,105.7,83.9,117.1"/>
		</defs>
		<clipPath id="SVGID_58_">
			<use xlink:href="#SVGID_57_"  style="overflow:visible;"/>
		</clipPath>
		<g transform="matrix(1 0 0 1 0 0)" style="clip-path:url(#SVGID_58_);">
			
				<image style="overflow:visible;" width="73" height="253" xlink:href="4F7CB08.jpg"  transform="matrix(0.4474 0 0 0.4479 74.6317 4.7321)">
			</image>
		</g>
	</g>
	<g>
		<defs>
			<path id="SVGID_59_" d="M101.4,144.8L101.4,144.8c-1.6-1.9-3.2-3.8-4.7-5.8c-0.4-0.6-0.8-1.1-1.2-1.7c-0.4-0.6-0.8-1.1-1.2-1.7
				c-1-1.4-1.9-2.8-2.9-4.3c-0.2-0.3-0.4-0.6-0.5-0.9c-0.5-0.9-1.1-1.7-1.6-2.6c-0.3-0.6-0.7-1.2-1-1.8c-1.6-3-3.1-6-4.4-9l0,0v0
				l0,0l0,0c4.8-11.4,12.2-21.9,22-30.3c0.2-0.2,0.4-0.3,0.6-0.5c3.7,10.4,8.4,20.5,14.1,30C111.1,122.7,103.9,132.5,101.4,144.8
				L101.4,144.8"/>
		</defs>
		<clipPath id="SVGID_60_">
			<use xlink:href="#SVGID_59_"  style="overflow:visible;"/>
		</clipPath>
		<g transform="matrix(1 0 0 1 0 0)" style="clip-path:url(#SVGID_60_);">
			
				<image style="overflow:visible;" width="85" height="134" xlink:href="4F7CB0B.jpg"  transform="matrix(0.4473 0 0 0.4488 83.1224 85.602)">
			</image>
		</g>
	</g>
	<g>
		<defs>
			<path id="SVGID_61_" d="M246.4,195.4h-0.4c-15.3,0-30.5-1.1-45.6-3.2c-0.1,0-0.1,0-0.2,0c-16.4-2.3-31-6-43.9-10.8l0,0
				c-2.6-1-5.1-2-7.6-3.1c0.6-0.7,1.1-1.5,1.7-2.2l0,0l-35.3-31.3h-13.7l0,0l0,0c2.5-12.4,9.7-22.1,19.3-28.6
				c5.6,9.4,12.2,18.2,19.8,26.4c30.9,33.5,74.2,52.2,119.3,52.2c3.8,0,7.5-0.1,11.3-0.4C262.9,195.1,254.7,195.4,246.4,195.4"/>
		</defs>
		<clipPath id="SVGID_62_">
			<use xlink:href="#SVGID_61_"  style="overflow:visible;"/>
		</clipPath>
		<g transform="matrix(1 0 0 1 0 -7.629395e-06)" style="clip-path:url(#SVGID_62_);">
			
				<image style="overflow:visible;" width="383" height="180" xlink:href="4F7CB09.jpg"  transform="matrix(0.4469 0 0 0.4483 100.5449 115.5367)">
			</image>
		</g>
	</g>
	<g>
		<defs>
			<path id="SVGID_63_" d="M271.1,194.5c1-0.1,2-0.2,3-0.2C273.1,194.3,272.1,194.4,271.1,194.5"/>
		</defs>
		<clipPath id="SVGID_64_">
			<use xlink:href="#SVGID_63_"  style="overflow:visible;"/>
		</clipPath>
		<g style="clip-path:url(#SVGID_64_);">
			
				<image style="overflow:visible;" width="10" height="3" xlink:href="4F7CB0F.jpg"  transform="matrix(0.4513 0 0 0.5361 270.3267 193.7251)">
			</image>
		</g>
	</g>
	<g>
		<defs>
			<path id="SVGID_65_" d="M271.1,194.5c1-0.1,2-0.2,3.1-0.2c0,0,0,0,0,0C273.1,194.3,272.1,194.4,271.1,194.5
				C271.1,194.5,271.1,194.5,271.1,194.5"/>
		</defs>
		<clipPath id="SVGID_66_">
			<use xlink:href="#SVGID_65_"  style="overflow:visible;"/>
		</clipPath>
		<g style="clip-path:url(#SVGID_66_);">
			
				<image style="overflow:visible;" width="10" height="3" xlink:href="4F7CB23.jpg"  transform="matrix(0.4513 0 0 0.5361 270.3267 193.7251)">
			</image>
		</g>
	</g>
	<g>
		<defs>
			<path id="SVGID_67_" d="M160.3,318L160.3,318L160.3,318L160.3,318L160.3,318L160.3,318 M96.5,185.3c0-13.5,1.6-27.1,4.8-40.5l0,0
				l0,0c-3.2,13.3-4.8,26.8-4.8,40.1V185.3"/>
		</defs>
		<clipPath id="SVGID_68_">
			<use xlink:href="#SVGID_67_"  style="overflow:visible;"/>
		</clipPath>
		<g style="clip-path:url(#SVGID_68_);">
			
				<image style="overflow:visible;" width="146" height="390" xlink:href="4F7CB2D.jpg"  transform="matrix(0.4471 0 0 0.4475 95.6308 144.1287)">
			</image>
		</g>
	</g>
	<g>
		<defs>
			<path id="SVGID_69_" d="M160.3,318c-21.1-20.1-32.6-47.8-32.6-76.3l0,0c0,28.4,11.5,56,32.4,76.1
				C160.1,317.8,160.2,317.9,160.3,318"/>
		</defs>
		<clipPath id="SVGID_70_">
			<use xlink:href="#SVGID_69_"  style="overflow:visible;"/>
		</clipPath>
		<g transform="matrix(1 0 0 1 0 1.525879e-05)" style="clip-path:url(#SVGID_70_);">
			
				<image style="overflow:visible;" width="76" height="173" xlink:href="4F7CB2F.jpg"  transform="matrix(0.4474 0 0 0.4483 126.907 241.0836)">
			</image>
		</g>
	</g>
	<g>
		<defs>
			<path id="SVGID_71_" d="M160,317.7c-20.9-20.1-32.4-47.7-32.4-76.1l0,0C127.6,270.1,139.1,297.6,160,317.7"/>
		</defs>
		<clipPath id="SVGID_72_">
			<use xlink:href="#SVGID_71_"  style="overflow:visible;"/>
		</clipPath>
		<g transform="matrix(1 0 0 1 0 1.525879e-05)" style="clip-path:url(#SVGID_72_);">
			
				<image style="overflow:visible;" width="76" height="173" xlink:href="4F7CB22.jpg"  transform="matrix(0.4474 0 0 0.4483 126.907 241.0836)">
			</image>
		</g>
	</g>
	<g>
		<defs>
			<path id="SVGID_73_" d="M160.3,318c-40.8-32.7-63.7-81.8-63.7-132.6v-0.4c0-13.3,1.6-26.8,4.8-40.1l0,0
				c11.6,13.3,27.2,24.9,47.3,33.5l0,0c-9.2,12.3-15.8,26.6-19,42.1l0,0c-1.4,7-2.1,14.1-2.1,21.1l0,0l0,0l0,0
				C127.6,270.2,139.2,297.8,160.3,318L160.3,318"/>
		</defs>
		<clipPath id="SVGID_74_">
			<use xlink:href="#SVGID_73_"  style="overflow:visible;"/>
		</clipPath>
		<g style="clip-path:url(#SVGID_74_);">
			
				<image style="overflow:visible;" width="146" height="390" xlink:href="4F7CB21.jpg"  transform="matrix(0.4471 0 0 0.4475 95.6308 144.1287)">
			</image>
		</g>
	</g>
	<g>
		<defs>
			<path id="SVGID_75_" d="M148.7,178.3L148.7,178.3L148.7,178.3c-20.1-8.7-35.8-20.2-47.3-33.5h13.7l35.3,31.3
				C149.8,176.9,149.3,177.6,148.7,178.3"/>
		</defs>
		<clipPath id="SVGID_76_">
			<use xlink:href="#SVGID_75_"  style="overflow:visible;"/>
		</clipPath>
		<g style="clip-path:url(#SVGID_76_);">
			
				<image style="overflow:visible;" width="113" height="78" xlink:href="4F7CB25.jpg"  transform="matrix(0.4472 0 0 0.4502 100.5449 144.1287)">
			</image>
		</g>
	</g>
	<g>
		<defs>
			<path id="SVGID_77_" d="M274.1,194.2c-17.5,16-38.3,27.4-60.7,33.4c-13,3.5-24.9,5.1-35.6,5.3h0c-60.9,0.6-84.5-48.8-76.5-88
				c20.1,23.1,52.4,40.9,98.9,47.4C224.7,195.6,249.5,196.3,274.1,194.2L274.1,194.2z"/>
		</defs>
		<clipPath id="SVGID_78_">
			<use xlink:href="#SVGID_77_"  style="overflow:visible;"/>
		</clipPath>
		<g class="st13">
			<defs>
				<rect id="SVGID_79_" x="93.5" y="144.8" width="180.7" height="88.6"/>
			</defs>
			<clipPath id="SVGID_80_">
				<use xlink:href="#SVGID_79_"  style="overflow:visible;"/>
			</clipPath>
			<g transform="matrix(1 0 0 1 0 1.525879e-05)" style="clip-path:url(#SVGID_80_);">
				
					<image style="overflow:visible;" width="408" height="202" xlink:href="4F7CB27.jpg"  transform="matrix(0.4468 0 0 -0.4468 92.8608 234.4177)">
				</image>
			</g>
		</g>
	</g>
</g>
<g>
	<path class="st14" d="M14.3,373.2v24.5H4.4v-42.8h7.7L32.1,380v-25.1H42v42.8h-8L14.3,373.2z"/>
	<path class="st14" d="M58.3,398.3c-1.6,0-3-0.3-4.4-0.8c-1.3-0.5-2.5-1.2-3.5-2.1c-1-0.9-1.7-2-2.3-3.2c-0.6-1.2-0.8-2.6-0.8-4
		c0-1.6,0.3-3,1-4.3c0.7-1.3,1.6-2.4,2.8-3.3c1.2-0.9,2.6-1.6,4.3-2.2c1.6-0.5,3.5-0.8,5.5-0.8c1.3,0,2.6,0.1,3.9,0.3
		c1.2,0.2,2.3,0.6,3.3,1v-1.4c0-3.7-2.1-5.5-6.3-5.5c-1.7,0-3.4,0.3-4.9,0.9c-1.6,0.6-3.2,1.5-4.9,2.6l-2.8-6
		c2.1-1.4,4.3-2.4,6.5-3.1c2.2-0.7,4.6-1,7.2-1c4.8,0,8.5,1.1,11.1,3.4c2.6,2.3,3.9,5.5,3.9,9.9v8.1c0,1,0.2,1.6,0.5,2
		c0.4,0.4,1,0.6,1.9,0.7v8.1c-0.9,0.2-1.8,0.3-2.6,0.4c-0.8,0.1-1.5,0.1-2.1,0.1c-1.8,0-3.1-0.4-4-1.1c-0.9-0.7-1.5-1.7-1.7-3
		l-0.2-1.4c-1.4,1.8-3.1,3.2-5,4.2C62.6,397.8,60.5,398.3,58.3,398.3z M61.2,391.3c1,0,2.1-0.2,3-0.5c1-0.4,1.8-0.8,2.4-1.4
		c0.9-0.7,1.4-1.5,1.4-2.3v-3c-0.8-0.3-1.8-0.6-2.7-0.8c-1-0.2-1.9-0.3-2.7-0.3c-1.8,0-3.2,0.4-4.4,1.2c-1.1,0.8-1.7,1.8-1.7,3.1
		c0,1.2,0.4,2.1,1.3,2.9C58.7,391,59.8,391.3,61.2,391.3z"/>
	<path class="st14" d="M98,398.3c-2.2,0-4.2-0.4-6-1.2c-1.8-0.8-3.4-2-4.7-3.5c-1.3-1.5-2.4-3.2-3.1-5.2c-0.7-2-1.1-4.2-1.1-6.5
		c0-2.3,0.3-4.4,1-6.4c0.7-2,1.6-3.7,2.9-5.2c1.2-1.5,2.7-2.6,4.4-3.5c1.7-0.8,3.6-1.3,5.6-1.3c2.2,0,4.2,0.5,6,1.6
		c1.8,1,3.2,2.5,4.2,4.2v-17.5h9.6v33.1c0,1,0.2,1.6,0.5,2c0.4,0.4,1,0.6,1.9,0.7v8.1c-1,0.2-1.9,0.3-2.6,0.4
		c-0.7,0.1-1.4,0.1-2,0.1c-3.4-0.1-5.3-1.4-5.8-4l-0.2-1.7c-1.2,2-2.7,3.4-4.6,4.4C102.2,397.8,100.2,398.3,98,398.3z M100.6,390.1
		c1.3,0,2.6-0.4,3.8-1.2c1.2-0.8,2.1-1.9,2.8-3.2v-6.6c-0.6-1.6-1.6-2.9-2.9-3.9c-1.3-1-2.7-1.5-4.2-1.5c-1,0-2,0.2-2.9,0.7
		c-0.9,0.5-1.6,1.1-2.3,1.8c-0.6,0.8-1.1,1.6-1.5,2.7c-0.3,1-0.5,2.1-0.5,3.2c0,2.4,0.7,4.3,2.1,5.8
		C96.6,389.4,98.4,390.1,100.6,390.1z"/>
	<path class="st14" d="M124.6,362.4v-8.7h9.6v8.7H124.6z M124.6,397.7V366h9.6v31.6H124.6z"/>
	<path class="st14" d="M155.6,397.7v-42.8h19.3c2,0,3.9,0.4,5.6,1.3c1.7,0.8,3.2,1.9,4.4,3.3c1.2,1.4,2.2,2.9,2.9,4.6
		c0.7,1.7,1.1,3.5,1.1,5.2c0,1.3-0.2,2.6-0.5,3.8c-0.3,1.2-0.8,2.4-1.4,3.5c-0.6,1.1-1.3,2.1-2.2,2.9c-0.9,0.9-1.8,1.6-2.9,2.2
		l9.8,15.9h-11.1l-8.6-13.8h-6.4v13.8H155.6z M165.5,375.3h9c1.2,0,2.2-0.6,3-1.7c0.8-1.1,1.3-2.5,1.3-4.2c0-1.8-0.5-3.2-1.4-4.2
		c-1-1-2-1.6-3.1-1.6h-8.7V375.3z"/>
	<path class="st14" d="M210.9,398.3c-2.7,0-5-0.4-7.1-1.3c-2.1-0.9-3.9-2-5.4-3.5c-1.5-1.5-2.6-3.2-3.3-5.2c-0.8-1.9-1.1-4-1.1-6.1
		c0-2.3,0.4-4.4,1.1-6.5c0.8-2,1.9-3.8,3.3-5.3c1.4-1.5,3.2-2.7,5.3-3.6c2.1-0.9,4.5-1.3,7.2-1.3c2.7,0,5.1,0.4,7.2,1.3
		c2.1,0.9,3.9,2.1,5.3,3.6c1.4,1.5,2.5,3.2,3.3,5.2c0.7,2,1.1,4,1.1,6.2c0,0.6,0,1.1-0.1,1.7c0,0.5-0.1,1-0.2,1.4h-23.4
		c0.2,2.1,0.9,3.7,2.3,4.8c1.4,1.1,3,1.7,4.7,1.7c1.4,0,2.8-0.3,4.1-1c1.3-0.7,2.2-1.6,2.6-2.8l8.2,2.3c-1.2,2.5-3.2,4.5-5.8,6.1
		C217.7,397.5,214.6,398.3,210.9,398.3z M217.6,378.9c-0.2-2-0.9-3.6-2.2-4.8c-1.2-1.2-2.8-1.7-4.6-1.7c-1.9,0-3.4,0.6-4.7,1.8
		c-1.2,1.2-1.9,2.8-2.1,4.7H217.6z"/>
	<path class="st14" d="M262.7,397.7H253v-17.8c0-2.1-0.4-3.6-1.2-4.5c-0.8-0.9-1.8-1.4-3.1-1.4c-0.7,0-1.4,0.1-2.1,0.4
		c-0.7,0.3-1.4,0.7-2,1.2c-0.6,0.5-1.2,1.1-1.7,1.8c-0.5,0.7-0.9,1.4-1.2,2.2v18.1h-9.6V366h8.7v5.3c1.2-1.9,2.8-3.3,4.9-4.4
		c2.1-1,4.6-1.5,7.3-1.5c2,0,3.7,0.4,5,1.1c1.3,0.7,2.2,1.7,2.9,2.9c0.7,1.2,1.1,2.5,1.4,3.9c0.2,1.4,0.3,2.8,0.3,4.1V397.7z"/>
	<path class="st14" d="M278,398.3c-1.6,0-3-0.3-4.4-0.8c-1.3-0.5-2.5-1.2-3.5-2.1c-1-0.9-1.7-2-2.3-3.2c-0.6-1.2-0.8-2.6-0.8-4
		c0-1.6,0.3-3,1-4.3c0.7-1.3,1.6-2.4,2.8-3.3c1.2-0.9,2.6-1.6,4.3-2.2c1.6-0.5,3.5-0.8,5.5-0.8c1.3,0,2.6,0.1,3.9,0.3
		c1.2,0.2,2.3,0.6,3.3,1v-1.4c0-3.7-2.1-5.5-6.3-5.5c-1.7,0-3.4,0.3-4.9,0.9c-1.6,0.6-3.2,1.5-4.9,2.6l-2.8-6
		c2.1-1.4,4.3-2.4,6.5-3.1c2.2-0.7,4.6-1,7.2-1c4.8,0,8.5,1.1,11.1,3.4c2.6,2.3,3.9,5.5,3.9,9.9v8.1c0,1,0.2,1.6,0.5,2
		c0.4,0.4,1,0.6,1.9,0.7v8.1c-0.9,0.2-1.8,0.3-2.6,0.4c-0.8,0.1-1.5,0.1-2.1,0.1c-1.8,0-3.1-0.4-4-1.1c-0.9-0.7-1.5-1.7-1.7-3
		l-0.2-1.4c-1.4,1.8-3.1,3.2-5,4.2C282.2,397.8,280.2,398.3,278,398.3z M280.8,391.3c1,0,2.1-0.2,3-0.5c1-0.4,1.8-0.8,2.4-1.4
		c0.9-0.7,1.4-1.5,1.4-2.3v-3c-0.8-0.3-1.8-0.6-2.7-0.8c-1-0.2-1.9-0.3-2.7-0.3c-1.8,0-3.2,0.4-4.4,1.2c-1.1,0.8-1.7,1.8-1.7,3.1
		c0,1.2,0.4,2.1,1.3,2.9C278.3,391,279.4,391.3,280.8,391.3z"/>
	<path class="st14" d="M324.5,374.3c-2.3,0-4.4,0.4-6.3,1.1c-1.9,0.7-3.2,1.8-4.1,3.3v19h-9.6V366h8.9v6.4c1.1-2.1,2.5-3.8,4.2-5
		c1.7-1.2,3.5-1.8,5.5-1.9c0.8,0,1.3,0,1.5,0.1V374.3z"/>
	<path class="st14" d="M341.3,398.3c-2.2,0-4.2-0.4-6-1.2c-1.8-0.8-3.4-2-4.7-3.5c-1.3-1.5-2.4-3.2-3.1-5.2c-0.7-2-1.1-4.2-1.1-6.5
		c0-2.3,0.3-4.4,1-6.4c0.7-2,1.6-3.7,2.9-5.2c1.2-1.5,2.7-2.6,4.4-3.5c1.7-0.8,3.6-1.3,5.6-1.3c2.2,0,4.2,0.5,6,1.6
		c1.8,1,3.2,2.5,4.2,4.2v-17.5h9.6v33.1c0,1,0.2,1.6,0.5,2c0.4,0.4,1,0.6,1.9,0.7v8.1c-1,0.2-1.9,0.3-2.6,0.4
		c-0.7,0.1-1.4,0.1-2,0.1c-3.4-0.1-5.3-1.4-5.8-4l-0.2-1.7c-1.2,2-2.7,3.4-4.6,4.4C345.5,397.8,343.5,398.3,341.3,398.3z
		 M343.9,390.1c1.3,0,2.6-0.4,3.8-1.2c1.2-0.8,2.1-1.9,2.8-3.2v-6.6c-0.6-1.6-1.6-2.9-2.9-3.9c-1.3-1-2.7-1.5-4.2-1.5
		c-1,0-2,0.2-2.9,0.7c-0.9,0.5-1.6,1.1-2.3,1.8c-0.6,0.8-1.1,1.6-1.5,2.7c-0.3,1-0.5,2.1-0.5,3.2c0,2.4,0.7,4.3,2.1,5.8
		C339.8,389.4,341.6,390.1,343.9,390.1z"/>
	<path class="st14" d="M367.9,362.4v-8.7h9.6v8.7H367.9z M367.9,397.7V366h9.6v31.6H367.9z"/>
</g>
</svg>
