<?xml version="1.0" encoding="utf-8"?>
<!-- Generator: Adobe Illustrator 21.1.0, SVG Export Plug-In . SVG Version: 6.00 Build 0)  -->
<svg version="1.1" id="Шар_1" xmlns="http://www.w3.org/2000/svg" xmlns:xlink="http://www.w3.org/1999/xlink" x="0px" y="0px"
	 viewBox="0 0 470.1 120.2" style="enable-background:new 0 0 470.1 120.2;" xml:space="preserve">
<style type="text/css">
	.st0{clip-path:url(#SVGID_2_);}
	.st1{clip-path:url(#SVGID_6_);}
	.st2{clip-path:url(#SVGID_10_);}
	.st3{clip-path:url(#SVGID_14_);}
	.st4{clip-path:url(#SVGID_18_);}
	.st5{clip-path:url(#SVGID_22_);}
	.st6{clip-path:url(#SVGID_27_);}
	.st7{clip-path:url(#SVGID_28_);}
	.st8{clip-path:url(#SVGID_33_);}
	.st9{clip-path:url(#SVGID_34_);}
	.st10{clip-path:url(#SVGID_38_);}
	.st11{clip-path:url(#SVGID_42_);}
	.st12{clip-path:url(#SVGID_46_);}
	.st13{clip-path:url(#SVGID_78_);}
	.st14{fill:#301D13;}
</style>
<g>
	<g>
		<defs>
			<path id="SVGID_1_" d="M35.1,119.6C35,119.6,35,119.6,35.1,119.6c-8.1-7.7-12.4-18.2-12.4-29.1c0-2.7,0.3-5.4,0.8-8.1l0,0
				c1.2-5.9,3.7-11.4,7.2-16c0.9,0.4,1.9,0.8,2.9,1.2L53.1,85l1.5,0.4c-4.7,1.2-8.9,1.8-12.8,1.8h0c-1.2,0.1-2.4,0.2-3.5,0.2
				c-3,0-6-0.4-8.9-1.1c5.8,1.7,11.7,2.5,17.6,2.5c4.8,0,9.5-0.5,14.1-1.6C46,90.9,35.4,104.2,35.1,119.6"/>
		</defs>
		<clipPath id="SVGID_2_">
			<use xlink:href="#SVGID_1_"  style="overflow:visible;"/>
		</clipPath>
		<g class="st0">
			<defs>
				<rect id="SVGID_3_" x="22.6" y="66.5" width="38.4" height="53.2"/>
			</defs>
			<clipPath id="SVGID_4_">
				<use xlink:href="#SVGID_3_"  style="overflow:visible;"/>
			</clipPath>
			<g transform="matrix(1 0 0 1 0 7.629395e-06)" style="clip-path:url(#SVGID_4_);">
				
					<image style="overflow:visible;" width="232" height="316" xlink:href="A9D9823E.jpg"  transform="matrix(0.1701 0 0 -0.1701 22.2008 119.946)">
				</image>
			</g>
		</g>
	</g>
	<g>
		<defs>
			<path id="SVGID_5_" d="M31.8,25.3c0.1,0,0.3,0,0.4,0C32.1,25.3,32,25.3,31.8,25.3L31.8,25.3L31.8,25.3L31.8,25.3z"/>
		</defs>
		<clipPath id="SVGID_6_">
			<use xlink:href="#SVGID_5_"  style="overflow:visible;"/>
		</clipPath>
		<g class="st1">
			<defs>
				<rect id="SVGID_7_" x="31.8" y="25.3" width="0.4" height="0"/>
			</defs>
			<clipPath id="SVGID_8_">
				<use xlink:href="#SVGID_7_"  style="overflow:visible;"/>
			</clipPath>
			<g transform="matrix(1 0 0 1 -1.907349e-06 -1.907349e-06)" style="clip-path:url(#SVGID_8_);">
				
					<image style="overflow:visible;" width="8" height="4" xlink:href="A9D98242.jpg"  transform="matrix(0.1701 0 0 -0.1701 31.3878 25.675)">
				</image>
			</g>
		</g>
	</g>
	<g>
		<defs>
			<path id="SVGID_9_" d="M78.4,72.5c-0.3-0.1-0.5-0.2-0.8-0.3c-0.2-0.1-0.4-0.2-0.6-0.3c-0.1,0-0.1-0.1-0.2-0.1
				c-0.2-0.1-0.5-0.2-0.7-0.3l0,0c-0.5-0.2-1-0.4-1.5-0.7l0,0c-0.2-0.1-0.4-0.2-0.6-0.3c-0.3-0.1-0.6-0.3-0.9-0.4
				c-0.2-0.1-0.5-0.2-0.7-0.3c-0.2-0.1-0.5-0.2-0.7-0.3c-0.2-0.1-0.3-0.2-0.5-0.3c-0.2-0.1-0.3-0.2-0.5-0.3l0,0
				c-0.2-0.1-0.3-0.2-0.5-0.3c-0.2-0.1-0.5-0.2-0.7-0.4l-0.1,0c-0.2-0.1-0.4-0.2-0.6-0.3c-0.3-0.1-0.5-0.3-0.8-0.5
				c-0.2-0.1-0.4-0.2-0.5-0.3c-0.1-0.1-0.2-0.1-0.3-0.2c-0.2-0.1-0.4-0.2-0.5-0.3c-0.2-0.1-0.5-0.3-0.7-0.4c-0.1,0-0.1-0.1-0.2-0.1
				c-0.2-0.1-0.3-0.2-0.5-0.3l0,0l0,0c-6.9-4.2-11.1-8.4-14.2-12.1c-1.6-1.9-3.1-3.9-4.6-5.7c-0.1-0.2-0.3-0.4-0.5-0.5l0,0
				c-1.8-2.2-3.8-4.2-6.3-5.6l0,0c-0.1-0.1-0.2-0.1-0.4-0.2l0,0c-0.1-0.1-0.3-0.1-0.4-0.2l0,0c-0.1-0.1-0.2-0.1-0.4-0.2l-0.1,0
				c-0.1,0-0.2-0.1-0.3-0.1l0,0l0,0c0.1,0,0.2,0.1,0.3,0.1l0.1,0l0,0c0.1,0.1,0.2,0.1,0.4,0.2l0,0l0,0l0,0c0.1,0.1,0.3,0.1,0.4,0.2
				l0,0l0,0l0,0c0.1,0.1,0.2,0.1,0.4,0.2l0,0l0,0c2.5,1.4,4.5,3.4,6.3,5.6l0,0l0,0c0.2,0.2,0.3,0.4,0.5,0.5l0,0l0,0l0,0
				c-3.8-8-8.2-15.6-13.3-22.8c25.3,0.6,22.5,23.1,44.7,35.9c4.3,2.5,9.3,5,15,7.5C88.3,70.7,83.4,72,78.4,72.5L78.4,72.5
				 M92.9,68.7C92.9,68.7,92.9,68.7,92.9,68.7L92.9,68.7C92.9,68.7,92.9,68.7,92.9,68.7"/>
		</defs>
		<clipPath id="SVGID_10_">
			<use xlink:href="#SVGID_9_"  style="overflow:visible;"/>
		</clipPath>
		<g class="st2">
			<defs>
				<rect id="SVGID_11_" x="33.2" y="25.3" width="59.7" height="47.2"/>
			</defs>
			<clipPath id="SVGID_12_">
				<use xlink:href="#SVGID_11_"  style="overflow:visible;"/>
			</clipPath>
			<g transform="matrix(1 0 0 1 0 0)" style="clip-path:url(#SVGID_12_);">
				
					<image style="overflow:visible;" width="356" height="282" xlink:href="A9D98245.jpg"  transform="matrix(0.1701 0 0 -0.1701 32.9054 72.9997)">
				</image>
			</g>
		</g>
	</g>
	<g>
		<defs>
			<path id="SVGID_13_" d="M33.2,25.3c-0.1,0-0.3,0-0.4,0C33,25.3,33.1,25.3,33.2,25.3L33.2,25.3L33.2,25.3z"/>
		</defs>
		<clipPath id="SVGID_14_">
			<use xlink:href="#SVGID_13_"  style="overflow:visible;"/>
		</clipPath>
		<g class="st3">
			<defs>
				<rect id="SVGID_15_" x="32.8" y="25.3" width="0.4" height="0"/>
			</defs>
			<clipPath id="SVGID_16_">
				<use xlink:href="#SVGID_15_"  style="overflow:visible;"/>
			</clipPath>
			<g transform="matrix(1 0 0 1 0 0)" style="clip-path:url(#SVGID_16_);">
				
					<image style="overflow:visible;" width="8" height="4" xlink:href="A9D98246.jpg"  transform="matrix(0.1701 0 0 -0.1701 32.4283 25.673)">
				</image>
			</g>
		</g>
	</g>
	<g>
		<defs>
			<path id="SVGID_17_" d="M36.9,40.6c0.1,0,0.2,0.1,0.3,0.1C37.1,40.7,37,40.7,36.9,40.6L36.9,40.6L36.9,40.6z"/>
		</defs>
		<clipPath id="SVGID_18_">
			<use xlink:href="#SVGID_17_"  style="overflow:visible;"/>
		</clipPath>
		<g class="st4">
			<defs>
				<rect id="SVGID_19_" x="36.9" y="40.6" width="0.3" height="0.1"/>
			</defs>
			<clipPath id="SVGID_20_">
				<use xlink:href="#SVGID_19_"  style="overflow:visible;"/>
			</clipPath>
			<g transform="matrix(1 0 0 1 0 0)" style="clip-path:url(#SVGID_20_);">
				
					<image style="overflow:visible;" width="8" height="5" xlink:href="A9D98244.jpg"  transform="matrix(0.1701 0 0 -0.1701 36.3892 41.1691)">
				</image>
			</g>
		</g>
	</g>
	<g>
		<defs>
			<path id="SVGID_21_" d="M46.9,88.9c-5.9,0-11.8-0.8-17.6-2.5c2.9,0.7,5.9,1.1,8.9,1.1c1.2,0,2.4-0.1,3.5-0.2h0
				c3.9,0,8.1-0.6,12.8-1.8c0.2-0.1,0.5-0.1,0.7-0.2c8.5-2.3,16.4-6.6,23.1-12.7c0,0,0,0,0,0c0,0,0,0,0,0l0,0l0,0
				c5-0.6,9.9-1.9,14.5-3.8l0,0l0,0c0,0,0,0,0,0C84.2,78.2,73,84.5,61,87.3C56.4,88.3,51.7,88.9,46.9,88.9"/>
		</defs>
		<clipPath id="SVGID_22_">
			<use xlink:href="#SVGID_21_"  style="overflow:visible;"/>
		</clipPath>
		<g class="st5">
			<defs>
				<rect id="SVGID_23_" x="29.3" y="68.7" width="63.6" height="20.2"/>
			</defs>
			<clipPath id="SVGID_24_">
				<use xlink:href="#SVGID_23_"  style="overflow:visible;"/>
			</clipPath>
			<g transform="matrix(1 0 0 1 -1.907349e-06 0)" style="clip-path:url(#SVGID_24_);">
				
					<image style="overflow:visible;" width="380" height="123" xlink:href="A9D98243.jpg"  transform="matrix(0.1701 0 0 -0.1701 28.9986 89.3791)">
				</image>
			</g>
		</g>
	</g>
	<g>
		<defs>
			<path id="SVGID_25_" d="M35.1,119.6c-12.1-5.2-22.2-14.5-28.3-26.5c-5.4-10.6-7.3-22.5-5.6-34l0,0c1-5.4,2.6-10.8,4.8-16
				l25.3,22.5c-3.8,4.9-6.6,10.6-7.9,16.9C20.7,96.1,25.1,110.1,35.1,119.6"/>
		</defs>
		<defs>
			<rect id="SVGID_26_" x="0.6" y="0.6" width="92.3" height="119.1"/>
		</defs>
		<clipPath id="SVGID_27_">
			<use xlink:href="#SVGID_25_"  style="overflow:visible;"/>
		</clipPath>
		<clipPath id="SVGID_28_" class="st6">
			<use xlink:href="#SVGID_26_"  style="overflow:visible;"/>
		</clipPath>
		<g class="st7">
			<defs>
				<rect id="SVGID_29_" x="0.6" y="43.1" width="34.5" height="76.6"/>
			</defs>
			<clipPath id="SVGID_30_">
				<use xlink:href="#SVGID_29_"  style="overflow:visible;"/>
			</clipPath>
			<g transform="matrix(1 0 0 1 0 7.629395e-06)" style="clip-path:url(#SVGID_30_);">
				
					<image style="overflow:visible;" width="208" height="454" xlink:href="A9D9824D.jpg"  transform="matrix(0.1701 0 0 -0.1701 0.3839 119.9865)">
				</image>
			</g>
		</g>
	</g>
	<g>
		<defs>
			<path id="SVGID_31_" d="M35.1,119.6c-12.1-5.2-22.2-14.5-28.3-26.5c-5.4-10.6-7.3-22.5-5.6-34l0,0c1-5.4,2.6-10.8,4.8-16l0,0l0,0
				c0.5,1.2,1.1,2.3,1.7,3.4c0.1,0.2,0.3,0.5,0.4,0.7c0.2,0.3,0.4,0.7,0.6,1c0.1,0.1,0.1,0.2,0.2,0.3c0.3,0.6,0.7,1.1,1.1,1.6
				c0.2,0.2,0.3,0.4,0.5,0.6c0.2,0.2,0.3,0.4,0.5,0.6c0.6,0.7,1.2,1.5,1.8,2.2h0l0,0c-1.2,5.1-1.9,10.3-1.8,15.4
				C10.8,88.5,19.5,107.2,35.1,119.6L35.1,119.6 M22.6,90.6L22.6,90.6c0-2.7,0.3-5.4,0.8-8.1C22.9,85.2,22.6,87.9,22.6,90.6"/>
		</defs>
		<defs>
			<rect id="SVGID_32_" x="0.6" y="0.6" width="92.3" height="119.1"/>
		</defs>
		<clipPath id="SVGID_33_">
			<use xlink:href="#SVGID_31_"  style="overflow:visible;"/>
		</clipPath>
		<clipPath id="SVGID_34_" class="st8">
			<use xlink:href="#SVGID_32_"  style="overflow:visible;"/>
		</clipPath>
		<g class="st9">
			<defs>
				<rect id="SVGID_35_" x="0.6" y="43.1" width="34.5" height="76.6"/>
			</defs>
			<clipPath id="SVGID_36_">
				<use xlink:href="#SVGID_35_"  style="overflow:visible;"/>
			</clipPath>
			<g transform="matrix(1 0 0 1 0 7.629395e-06)" style="clip-path:url(#SVGID_36_);">
				
					<image style="overflow:visible;" width="208" height="454" xlink:href="A9D9824E.jpg"  transform="matrix(0.1701 0 0 -0.1701 0.3839 119.9865)">
				</image>
			</g>
		</g>
	</g>
	<g>
		<defs>
			<path id="SVGID_37_" d="M14.6,31.4c-2.3-6.6-3.5-13.5-3.5-20.5c0-3.4,0.3-6.9,0.9-10.4l0,0C6,8.2,2.7,17.6,2.7,27.2
				c0-9.6,3.3-19,9.3-26.6C17.8,6.1,23.1,12,28,18.2c1.8,2.3,3.5,4.7,5.2,7.1c-0.1,0-0.3,0-0.4,0c-0.1,0-0.2,0-0.3,0
				c-0.1,0-0.2,0-0.3,0h0c-0.1,0-0.2,0-0.4,0l-0.1,0C25.7,25.5,19.6,27.6,14.6,31.4"/>
		</defs>
		<clipPath id="SVGID_38_">
			<use xlink:href="#SVGID_37_"  style="overflow:visible;"/>
		</clipPath>
		<g class="st10">
			<defs>
				<rect id="SVGID_39_" x="2.7" y="0.6" width="30.5" height="30.9"/>
			</defs>
			<clipPath id="SVGID_40_">
				<use xlink:href="#SVGID_39_"  style="overflow:visible;"/>
			</clipPath>
			<g transform="matrix(1 0 0 1 0 0)" style="clip-path:url(#SVGID_40_);">
				
					<image style="overflow:visible;" width="184" height="186" xlink:href="A9D9824C.jpg"  transform="matrix(0.1701 0 0 -0.1701 2.4791 31.8967)">
				</image>
			</g>
		</g>
	</g>
	<g>
		<defs>
			<path id="SVGID_41_" d="M46.5,48.1L46.5,48.1c-0.1-0.2-0.3-0.4-0.5-0.5l0,0l0,0c-1.8-2.2-3.8-4.2-6.3-5.6l0,0l0,0
				c-0.1-0.1-0.2-0.1-0.4-0.2l0,0l0,0l0,0c-0.1-0.1-0.3-0.1-0.4-0.2l0,0l0,0l0,0c-0.1-0.1-0.2-0.1-0.4-0.2l0,0l-0.1,0
				c-0.1,0-0.2-0.1-0.3-0.1l0,0c0,0-0.1,0-0.1-0.1l0,0c-0.1,0-0.2-0.1-0.3-0.1l-0.1,0c-0.1-0.1-0.3-0.1-0.4-0.2
				c-0.1,0-0.2-0.1-0.3-0.1c0,0-0.1,0-0.1,0c-0.1,0-0.3-0.1-0.4-0.1c-0.1,0-0.2-0.1-0.4-0.1c0,0,0,0,0,0c-0.1,0-0.2-0.1-0.3-0.1
				c-0.1,0-0.2,0-0.2-0.1c-0.1,0-0.2,0-0.2-0.1c-0.1,0-0.3-0.1-0.4-0.1c-0.1,0-0.2,0-0.3-0.1c0,0-0.1,0-0.1,0l0,0
				c-0.1,0-0.3-0.1-0.4-0.1l-0.1,0c-0.4-0.1-0.9-0.1-1.3-0.2c-0.2,0-0.3,0-0.5,0l0,0c-0.5,0-1-0.1-1.5-0.1c-3.8,0-7.5,1.1-10.6,3.2
				c-2.2-3.6-4-7.4-5.4-11.4c5-3.9,11-6,17.2-6.1l0.1,0c0.1,0,0.2,0,0.4,0h0c0.1,0,0.2,0,0.3,0c0.1,0,0.2,0,0.3,0c0.1,0,0.3,0,0.4,0
				C38.2,32.5,42.7,40.1,46.5,48.1L46.5,48.1"/>
		</defs>
		<clipPath id="SVGID_42_">
			<use xlink:href="#SVGID_41_"  style="overflow:visible;"/>
		</clipPath>
		<g class="st11">
			<defs>
				<rect id="SVGID_43_" x="14.6" y="25.3" width="31.9" height="22.8"/>
			</defs>
			<clipPath id="SVGID_44_">
				<use xlink:href="#SVGID_43_"  style="overflow:visible;"/>
			</clipPath>
			<g transform="matrix(1 0 0 1 -9.536743e-07 0)" style="clip-path:url(#SVGID_44_);">
				
					<image style="overflow:visible;" width="192" height="138" xlink:href="8C6FD341.jpg"  transform="matrix(0.1701 0 0 -0.1701 14.294 48.444)">
				</image>
			</g>
		</g>
	</g>
	<g>
		<defs>
			<path id="SVGID_45_" d="M67.8,73c-5.8,0-11.7-0.4-17.5-1.2C56.1,72.6,61.9,73,67.8,73C67.8,73,67.8,73,67.8,73
				C67.8,73,67.8,73,67.8,73c3.2,0,6.3-0.1,9.5-0.4l0,0l0,0c0,0,0,0,0,0C74.1,72.9,71,73,67.8,73 M72.9,72.8
				c-17.2,0-33.7-7.2-45.4-19.9c-2.9-3.1-5.4-6.5-7.5-10c3.1-2.1,6.9-3.2,10.6-3.2c0.5,0,1,0,1.5,0.1l0,0c0.2,0,0.3,0,0.5,0
				c0.5,0,0.9,0.1,1.3,0.2l0.1,0c0.1,0,0.3,0,0.4,0.1l0,0c0,0,0.1,0,0.1,0c0.1,0,0.2,0,0.3,0.1c0.1,0,0.3,0.1,0.4,0.1
				c0.1,0,0.2,0,0.2,0.1c0.1,0,0.2,0,0.2,0.1c0.1,0,0.2,0.1,0.3,0.1c0,0,0,0,0,0c0.1,0,0.2,0.1,0.4,0.1c0.1,0,0.3,0.1,0.4,0.1
				c0,0,0.1,0,0.1,0c0.1,0,0.2,0.1,0.3,0.1c0.1,0.1,0.3,0.1,0.4,0.2l0.1,0c0.1,0,0.2,0.1,0.3,0.1l0,0c0,0,0.1,0,0.1,0.1l0,0
				c0.1,0,0.2,0.1,0.3,0.1l0.1,0c0.1,0.1,0.2,0.1,0.4,0.2l0,0c0.1,0.1,0.3,0.1,0.4,0.2l0,0c0.1,0.1,0.2,0.1,0.4,0.2l0,0
				c2.5,1.4,4.5,3.4,6.3,5.6l0,0c0.2,0.2,0.3,0.4,0.5,0.5c1.5,1.9,3,3.8,4.6,5.7c3.2,3.7,7.3,7.8,14.2,12.1l0,0l0,0
				c0.2,0.1,0.3,0.2,0.5,0.3c0.1,0,0.1,0.1,0.2,0.1c0.2,0.1,0.5,0.3,0.7,0.4c0.2,0.1,0.4,0.2,0.5,0.3c0.1,0.1,0.2,0.1,0.3,0.2
				c0.2,0.1,0.4,0.2,0.5,0.3c0.3,0.2,0.5,0.3,0.8,0.5c0.2,0.1,0.4,0.2,0.6,0.3l0.1,0c0.2,0.1,0.4,0.2,0.7,0.4
				c0.2,0.1,0.3,0.2,0.5,0.3l0,0c0.2,0.1,0.3,0.2,0.5,0.3c0.2,0.1,0.3,0.2,0.5,0.3c0.2,0.1,0.5,0.2,0.7,0.3c0.2,0.1,0.5,0.2,0.7,0.3
				c0.3,0.1,0.6,0.3,0.9,0.4c0.2,0.1,0.4,0.2,0.6,0.3l0,0c0.5,0.2,1,0.5,1.5,0.7l0,0c0.2,0.1,0.5,0.2,0.7,0.3c0.1,0,0.1,0.1,0.2,0.1
				c0.2,0.1,0.4,0.2,0.6,0.3c0.3,0.1,0.5,0.2,0.8,0.3c0,0,0,0,0,0c0,0,0,0,0,0c0,0,0,0,0,0c0,0,0,0,0,0l0,0c-0.4,0-0.8,0.1-1.2,0.1
				C75.8,72.7,74.4,72.8,72.9,72.8"/>
		</defs>
		<clipPath id="SVGID_46_">
			<use xlink:href="#SVGID_45_"  style="overflow:visible;"/>
		</clipPath>
		<g class="st12">
			<defs>
				<rect id="SVGID_47_" x="20" y="39.6" width="58.4" height="33.4"/>
			</defs>
			<clipPath id="SVGID_48_">
				<use xlink:href="#SVGID_47_"  style="overflow:visible;"/>
			</clipPath>
			<g transform="matrix(1 0 0 1 0 0)" style="clip-path:url(#SVGID_48_);">
				
					<image style="overflow:visible;" width="348" height="200" xlink:href="8C6FD347.jpg"  transform="matrix(0.1701 0 0 -0.1701 19.7428 73.4323)">
				</image>
			</g>
		</g>
	</g>
	<g>
		<defs>
			<path id="SVGID_49_" d="M67.8,73C67.8,73,67.8,73,67.8,73L67.8,73C67.8,73,67.8,73,67.8,73"/>
		</defs>
		<clipPath id="SVGID_50_">
			<use xlink:href="#SVGID_49_"  style="overflow:visible;"/>
		</clipPath>
		<g transform="matrix(1 0 0 1 0 0)" style="clip-path:url(#SVGID_50_);">
			
				<image style="overflow:visible;" width="4" height="3" xlink:href="8C6FD340.jpg"  transform="matrix(0.1956 0 0 0.2041 67.3551 72.6853)">
			</image>
		</g>
	</g>
	<g>
		<defs>
			<path id="SVGID_51_" d="M2.7,27.3C2.7,27.2,2.7,27.2,2.7,27.3C2.7,17.6,6,8.2,12,0.6l0,0c-6,7.6-9.3,17-9.3,26.6V27.3"/>
		</defs>
		<clipPath id="SVGID_52_">
			<use xlink:href="#SVGID_51_"  style="overflow:visible;"/>
		</clipPath>
		<g style="clip-path:url(#SVGID_52_);">
			
				<image style="overflow:visible;" width="57" height="159" xlink:href="8C6FD343.jpg"  transform="matrix(0.1704 0 0 0.1708 2.4542 0.385)">
			</image>
		</g>
	</g>
	<g>
		<defs>
			<path id="SVGID_53_" d="M12.6,53.7L12.6,53.7L12.6,53.7L12.6,53.7c-0.6-0.7-1.2-1.4-1.8-2.2c-0.2-0.2-0.3-0.4-0.5-0.6
				c-0.2-0.2-0.3-0.4-0.5-0.6c-0.4-0.5-0.7-1.1-1.1-1.6c-0.1-0.1-0.1-0.2-0.2-0.3c-0.2-0.3-0.4-0.7-0.6-1c-0.1-0.2-0.3-0.4-0.4-0.7
				C7,45.5,6.5,44.3,6,43.2l0,0l0,0c0.5,1.2,1.1,2.3,1.7,3.4c0.1,0.2,0.3,0.5,0.4,0.7c0.2,0.3,0.4,0.7,0.6,1
				c0.1,0.1,0.1,0.2,0.2,0.3c0.3,0.6,0.7,1.1,1.1,1.6c0.2,0.2,0.3,0.4,0.5,0.6c0.2,0.2,0.3,0.4,0.5,0.6C11.4,52.3,12,53,12.6,53.7
				L12.6,53.7L12.6,53.7L12.6,53.7L12.6,53.7"/>
		</defs>
		<clipPath id="SVGID_54_">
			<use xlink:href="#SVGID_53_"  style="overflow:visible;"/>
		</clipPath>
		<g transform="matrix(1 0 0 1 4.768372e-07 0)" style="clip-path:url(#SVGID_54_);">
			
				<image style="overflow:visible;" width="42" height="65" xlink:href="8C6FD35F.jpg"  transform="matrix(0.1705 0 0 0.1717 5.6871 42.9147)">
			</image>
		</g>
	</g>
	<g>
		<defs>
			<path id="SVGID_55_" d="M6,43.2c-2.2-5.1-3.3-10.5-3.3-15.9l0,0C2.7,32.7,3.8,38.1,6,43.2c1.8-4.4,4.7-8.3,8.4-11.6
				c0.1-0.1,0.2-0.1,0.2-0.2l0,0c-0.1,0.1-0.2,0.1-0.2,0.2C10.6,34.8,7.8,38.8,6,43.2L6,43.2"/>
		</defs>
		<clipPath id="SVGID_56_">
			<use xlink:href="#SVGID_55_"  style="overflow:visible;"/>
		</clipPath>
		<g style="clip-path:url(#SVGID_56_);">
			
				<image style="overflow:visible;" width="73" height="97" xlink:href="8C6FD342.jpg"  transform="matrix(0.1704 0 0 0.1712 2.4542 26.9235)">
			</image>
		</g>
	</g>
	<g>
		<defs>
			<path id="SVGID_57_" d="M6,43.2c-2.2-5.1-3.3-10.5-3.3-15.9v-0.1c0-9.5,3.3-19,9.3-26.6c-0.6,3.5-0.9,6.9-0.9,10.4
				c0,7,1.2,14,3.5,20.5c-0.1,0.1-0.2,0.1-0.2,0.2C10.6,34.8,7.8,38.8,6,43.2"/>
		</defs>
		<clipPath id="SVGID_58_">
			<use xlink:href="#SVGID_57_"  style="overflow:visible;"/>
		</clipPath>
		<g style="clip-path:url(#SVGID_58_);">
			
				<image style="overflow:visible;" width="73" height="253" xlink:href="8C6FD345.jpg"  transform="matrix(0.1704 0 0 0.1705 2.4542 0.385)">
			</image>
		</g>
	</g>
	<g>
		<defs>
			<path id="SVGID_59_" d="M12.6,53.7L12.6,53.7c-0.6-0.7-1.2-1.4-1.8-2.2c-0.2-0.2-0.3-0.4-0.5-0.6c-0.2-0.2-0.3-0.4-0.5-0.6
				c-0.4-0.5-0.7-1.1-1.1-1.6c-0.1-0.1-0.1-0.2-0.2-0.3c-0.2-0.3-0.4-0.7-0.6-1c-0.1-0.2-0.3-0.4-0.4-0.7C7,45.5,6.5,44.3,6,43.2
				l0,0v0l0,0l0,0c1.8-4.4,4.7-8.3,8.4-11.6c0.1-0.1,0.2-0.1,0.2-0.2c1.4,4,3.2,7.8,5.4,11.4C16.4,45.3,13.6,49,12.6,53.7L12.6,53.7
				"/>
		</defs>
		<clipPath id="SVGID_60_">
			<use xlink:href="#SVGID_59_"  style="overflow:visible;"/>
		</clipPath>
		<g transform="matrix(1 0 0 1 0 0)" style="clip-path:url(#SVGID_60_);">
			
				<image style="overflow:visible;" width="85" height="134" xlink:href="8C6FD346.jpg"  transform="matrix(0.1703 0 0 0.1709 5.6871 31.177)">
			</image>
		</g>
	</g>
	<g>
		<defs>
			<path id="SVGID_61_" d="M67.9,73h-0.1c-5.8,0-11.6-0.4-17.4-1.2c0,0,0,0-0.1,0c-6.2-0.9-11.8-2.3-16.7-4.1l0,0
				c-1-0.4-2-0.8-2.9-1.2c0.2-0.3,0.4-0.6,0.6-0.8l0,0L17.9,53.7h-5.2l0,0l0,0c1-4.7,3.7-8.4,7.3-10.9c2.1,3.6,4.7,6.9,7.5,10
				c11.8,12.7,28.3,19.9,45.4,19.9c1.4,0,2.9,0,4.3-0.2C74.1,72.9,71,73,67.9,73"/>
		</defs>
		<clipPath id="SVGID_62_">
			<use xlink:href="#SVGID_61_"  style="overflow:visible;"/>
		</clipPath>
		<g style="clip-path:url(#SVGID_62_);">
			
				<image style="overflow:visible;" width="383" height="180" xlink:href="8C6FD344.jpg"  transform="matrix(0.1702 0 0 0.1707 12.3209 42.5749)">
			</image>
		</g>
	</g>
	<g>
		<defs>
			<path id="SVGID_63_" d="M77.3,72.6c0.4,0,0.8-0.1,1.1-0.1C78,72.6,77.7,72.6,77.3,72.6"/>
		</defs>
		<clipPath id="SVGID_64_">
			<use xlink:href="#SVGID_63_"  style="overflow:visible;"/>
		</clipPath>
		<g style="clip-path:url(#SVGID_64_);">
			
				<image style="overflow:visible;" width="10" height="3" xlink:href="8C6FD34C.jpg"  transform="matrix(0.1718 0 0 0.2041 76.9669 72.3459)">
			</image>
		</g>
	</g>
	<g>
		<defs>
			<path id="SVGID_65_" d="M77.3,72.6c0.4,0,0.8-0.1,1.2-0.1c0,0,0,0,0,0C78,72.6,77.7,72.6,77.3,72.6
				C77.3,72.6,77.3,72.6,77.3,72.6"/>
		</defs>
		<clipPath id="SVGID_66_">
			<use xlink:href="#SVGID_65_"  style="overflow:visible;"/>
		</clipPath>
		<g style="clip-path:url(#SVGID_66_);">
			
				<image style="overflow:visible;" width="10" height="3" xlink:href="8C6FD364.jpg"  transform="matrix(0.1718 0 0 0.2041 76.9669 72.3459)">
			</image>
		</g>
	</g>
	<g>
		<defs>
			<path id="SVGID_67_" d="M35.1,119.6L35.1,119.6L35.1,119.6L35.1,119.6L35.1,119.6L35.1,119.6 M10.8,69.2c0-5.1,0.6-10.3,1.8-15.4
				l0,0l0,0c-1.2,5.1-1.8,10.2-1.8,15.3V69.2"/>
		</defs>
		<clipPath id="SVGID_68_">
			<use xlink:href="#SVGID_67_"  style="overflow:visible;"/>
		</clipPath>
		<g style="clip-path:url(#SVGID_68_);">
			
				<image style="overflow:visible;" width="146" height="390" xlink:href="8C6FD367.jpg"  transform="matrix(0.1702 0 0 0.1704 10.4498 53.4616)">
			</image>
		</g>
	</g>
	<g>
		<defs>
			<path id="SVGID_69_" d="M35.1,119.6c-8-7.7-12.4-18.2-12.4-29.1l0,0C22.6,101.4,27,111.9,35.1,119.6
				C35,119.6,35,119.6,35.1,119.6"/>
		</defs>
		<clipPath id="SVGID_70_">
			<use xlink:href="#SVGID_69_"  style="overflow:visible;"/>
		</clipPath>
		<g transform="matrix(1 0 0 1 1.907349e-06 7.629395e-06)" style="clip-path:url(#SVGID_70_);">
			
				<image style="overflow:visible;" width="76" height="173" xlink:href="8C6FD365.jpg"  transform="matrix(0.1703 0 0 0.1707 22.3585 90.3781)">
			</image>
		</g>
	</g>
	<g>
		<defs>
			<path id="SVGID_71_" d="M35,119.6c-8-7.7-12.3-18.2-12.3-29l0,0C22.6,101.4,27,111.9,35,119.6"/>
		</defs>
		<clipPath id="SVGID_72_">
			<use xlink:href="#SVGID_71_"  style="overflow:visible;"/>
		</clipPath>
		<g transform="matrix(1 0 0 1 1.907349e-06 7.629395e-06)" style="clip-path:url(#SVGID_72_);">
			
				<image style="overflow:visible;" width="76" height="173" xlink:href="8C6FD36B.jpg"  transform="matrix(0.1703 0 0 0.1707 22.3585 90.3781)">
			</image>
		</g>
	</g>
	<g>
		<defs>
			<path id="SVGID_73_" d="M35.1,119.6c-15.5-12.5-24.2-31.1-24.3-50.5V69c0-5.1,0.6-10.2,1.8-15.3l0,0c4.4,5.1,10.4,9.5,18,12.8
				l0,0c-3.5,4.7-6,10.1-7.2,16l0,0c-0.5,2.7-0.8,5.4-0.8,8.1l0,0l0,0l0,0C22.6,101.4,27,112,35.1,119.6L35.1,119.6"/>
		</defs>
		<clipPath id="SVGID_74_">
			<use xlink:href="#SVGID_73_"  style="overflow:visible;"/>
		</clipPath>
		<g style="clip-path:url(#SVGID_74_);">
			
				<image style="overflow:visible;" width="146" height="390" xlink:href="8C6FD36C.jpg"  transform="matrix(0.1702 0 0 0.1704 10.4498 53.4616)">
			</image>
		</g>
	</g>
	<g>
		<defs>
			<path id="SVGID_75_" d="M30.7,66.5L30.7,66.5L30.7,66.5c-7.7-3.3-13.6-7.7-18-12.8h5.2l13.4,11.9C31.1,65.9,30.9,66.2,30.7,66.5"
				/>
		</defs>
		<clipPath id="SVGID_76_">
			<use xlink:href="#SVGID_75_"  style="overflow:visible;"/>
		</clipPath>
		<g transform="matrix(1 0 0 1 0 -3.814697e-06)" style="clip-path:url(#SVGID_76_);">
			
				<image style="overflow:visible;" width="113" height="78" xlink:href="8C6FD36F.jpg"  transform="matrix(0.1703 0 0 0.1714 12.3209 53.4616)">
			</image>
		</g>
	</g>
	<g>
		<defs>
			<path id="SVGID_77_" d="M78.4,72.5C71.8,78.6,63.8,83,55.3,85.2c-5,1.3-9.5,2-13.5,2h0C18.6,87.5,9.6,68.7,12.6,53.7
				c7.6,8.8,19.9,15.6,37.7,18C59.6,73.1,69,73.3,78.4,72.5L78.4,72.5z"/>
		</defs>
		<clipPath id="SVGID_78_">
			<use xlink:href="#SVGID_77_"  style="overflow:visible;"/>
		</clipPath>
		<g class="st13">
			<defs>
				<rect id="SVGID_79_" x="9.6" y="53.7" width="68.8" height="33.7"/>
			</defs>
			<clipPath id="SVGID_80_">
				<use xlink:href="#SVGID_79_"  style="overflow:visible;"/>
			</clipPath>
			<g transform="matrix(1 0 0 1 0 -7.629395e-06)" style="clip-path:url(#SVGID_80_);">
				
					<image style="overflow:visible;" width="408" height="202" xlink:href="8C6FD36D.jpg"  transform="matrix(0.1701 0 0 -0.1701 9.3951 87.84)">
				</image>
			</g>
		</g>
	</g>
</g>
<g>
	<path class="st14" d="M106.9,89.5v24.5H97V71.2h7.7l19.9,25.1V71.2h9.9v42.8h-8L106.9,89.5z"/>
	<path class="st14" d="M150.9,114.5c-1.6,0-3-0.3-4.4-0.8c-1.3-0.5-2.5-1.2-3.5-2.1c-1-0.9-1.7-2-2.3-3.2c-0.6-1.2-0.8-2.6-0.8-4
		c0-1.6,0.3-3,1-4.3c0.7-1.3,1.6-2.4,2.8-3.3c1.2-0.9,2.6-1.6,4.3-2.2c1.6-0.5,3.5-0.8,5.5-0.8c1.3,0,2.6,0.1,3.9,0.3
		c1.2,0.2,2.3,0.6,3.3,1v-1.4c0-3.7-2.1-5.5-6.3-5.5c-1.7,0-3.4,0.3-4.9,0.9c-1.6,0.6-3.2,1.5-4.9,2.6l-2.8-6
		c2.1-1.4,4.3-2.4,6.5-3.1c2.2-0.7,4.6-1,7.2-1c4.8,0,8.5,1.1,11.1,3.4c2.6,2.3,3.9,5.5,3.9,9.9v8.1c0,1,0.2,1.6,0.5,2
		c0.4,0.4,1,0.6,1.9,0.7v8.1c-0.9,0.2-1.8,0.3-2.6,0.4c-0.8,0.1-1.5,0.1-2.1,0.1c-1.8,0-3.1-0.4-4-1.1c-0.9-0.7-1.5-1.7-1.7-3
		l-0.2-1.4c-1.4,1.8-3.1,3.2-5,4.2C155.1,114,153.1,114.5,150.9,114.5z M153.8,107.6c1,0,2.1-0.2,3-0.5c1-0.4,1.8-0.8,2.4-1.4
		c0.9-0.7,1.4-1.5,1.4-2.3v-3c-0.8-0.3-1.8-0.6-2.7-0.8c-1-0.2-1.9-0.3-2.7-0.3c-1.8,0-3.2,0.4-4.4,1.2c-1.1,0.8-1.7,1.8-1.7,3.1
		c0,1.2,0.4,2.1,1.3,2.9C151.3,107.2,152.4,107.6,153.8,107.6z"/>
	<path class="st14" d="M190.6,114.5c-2.2,0-4.2-0.4-6-1.2c-1.8-0.8-3.4-2-4.7-3.5c-1.3-1.5-2.4-3.2-3.1-5.2c-0.7-2-1.1-4.2-1.1-6.5
		c0-2.3,0.3-4.4,1-6.4c0.7-2,1.6-3.7,2.9-5.2c1.2-1.5,2.7-2.6,4.4-3.5c1.7-0.8,3.6-1.3,5.6-1.3c2.2,0,4.2,0.5,6,1.6
		c1.8,1,3.2,2.5,4.2,4.2V69.9h9.6v33.1c0,1,0.2,1.6,0.5,2c0.4,0.4,1,0.6,1.9,0.7v8.1c-1,0.2-1.9,0.3-2.6,0.4c-0.7,0.1-1.4,0.1-2,0.1
		c-3.4-0.1-5.3-1.4-5.8-4l-0.2-1.7c-1.2,2-2.7,3.4-4.6,4.4C194.8,114,192.8,114.5,190.6,114.5z M193.2,106.4c1.3,0,2.6-0.4,3.8-1.2
		c1.2-0.8,2.1-1.9,2.8-3.2v-6.6c-0.6-1.6-1.6-2.9-2.9-3.9c-1.3-1-2.7-1.5-4.2-1.5c-1,0-2,0.2-2.9,0.7c-0.9,0.5-1.6,1.1-2.3,1.8
		c-0.6,0.8-1.1,1.6-1.5,2.7c-0.3,1-0.5,2.1-0.5,3.2c0,2.4,0.7,4.3,2.1,5.8C189.1,105.6,191,106.4,193.2,106.4z"/>
	<path class="st14" d="M217.2,78.7v-8.7h9.6v8.7H217.2z M217.2,113.9V82.3h9.6v31.6H217.2z"/>
	<path class="st14" d="M248.2,113.9V71.2h19.3c2,0,3.9,0.4,5.6,1.3c1.7,0.8,3.2,1.9,4.4,3.3c1.2,1.4,2.2,2.9,2.9,4.6
		c0.7,1.7,1.1,3.5,1.1,5.2c0,1.3-0.2,2.6-0.5,3.8c-0.3,1.2-0.8,2.4-1.4,3.5c-0.6,1.1-1.3,2.1-2.2,2.9c-0.9,0.9-1.8,1.6-2.9,2.2
		l9.8,15.9h-11.1l-8.6-13.8h-6.4v13.8H248.2z M258.1,91.5h9c1.2,0,2.2-0.6,3-1.7c0.8-1.1,1.3-2.5,1.3-4.2c0-1.8-0.5-3.2-1.4-4.2
		c-1-1-2-1.6-3.1-1.6h-8.7V91.5z"/>
	<path class="st14" d="M303.5,114.5c-2.7,0-5-0.4-7.1-1.3c-2.1-0.9-3.9-2-5.4-3.5c-1.5-1.5-2.6-3.2-3.3-5.2c-0.8-1.9-1.1-4-1.1-6.1
		c0-2.3,0.4-4.4,1.1-6.5c0.8-2,1.9-3.8,3.3-5.3c1.4-1.5,3.2-2.7,5.3-3.6c2.1-0.9,4.5-1.3,7.2-1.3c2.7,0,5.1,0.4,7.2,1.3
		c2.1,0.9,3.9,2.1,5.3,3.6c1.4,1.5,2.5,3.2,3.3,5.2c0.7,2,1.1,4,1.1,6.2c0,0.6,0,1.1-0.1,1.7c0,0.5-0.1,1-0.2,1.4h-23.4
		c0.2,2.1,0.9,3.7,2.3,4.8c1.4,1.1,3,1.7,4.7,1.7c1.4,0,2.8-0.3,4.1-1c1.3-0.7,2.2-1.6,2.6-2.8l8.2,2.3c-1.2,2.5-3.2,4.5-5.8,6.1
		C310.3,113.7,307.2,114.5,303.5,114.5z M310.2,95.1c-0.2-2-0.9-3.6-2.2-4.8c-1.2-1.2-2.8-1.7-4.6-1.7c-1.9,0-3.4,0.6-4.7,1.8
		c-1.2,1.2-1.9,2.8-2.1,4.7H310.2z"/>
	<path class="st14" d="M355.3,113.9h-9.6V96.2c0-2.1-0.4-3.6-1.2-4.5c-0.8-0.9-1.8-1.4-3.1-1.4c-0.7,0-1.4,0.1-2.1,0.4
		c-0.7,0.3-1.4,0.7-2,1.2c-0.6,0.5-1.2,1.1-1.7,1.8c-0.5,0.7-0.9,1.4-1.2,2.2v18.1h-9.6V82.3h8.7v5.3c1.2-1.9,2.8-3.3,4.9-4.4
		c2.1-1,4.6-1.5,7.3-1.5c2,0,3.7,0.4,5,1.1c1.3,0.7,2.2,1.7,2.9,2.9c0.7,1.2,1.1,2.5,1.4,3.9c0.2,1.4,0.3,2.8,0.3,4.1V113.9z"/>
	<path class="st14" d="M370.6,114.5c-1.6,0-3-0.3-4.4-0.8c-1.3-0.5-2.5-1.2-3.5-2.1c-1-0.9-1.7-2-2.3-3.2c-0.6-1.2-0.8-2.6-0.8-4
		c0-1.6,0.3-3,1-4.3c0.7-1.3,1.6-2.4,2.8-3.3c1.2-0.9,2.6-1.6,4.3-2.2c1.6-0.5,3.5-0.8,5.5-0.8c1.3,0,2.6,0.1,3.9,0.3
		c1.2,0.2,2.3,0.6,3.3,1v-1.4c0-3.7-2.1-5.5-6.3-5.5c-1.7,0-3.4,0.3-4.9,0.9c-1.6,0.6-3.2,1.5-4.9,2.6l-2.8-6
		c2.1-1.4,4.3-2.4,6.5-3.1c2.2-0.7,4.6-1,7.2-1c4.8,0,8.5,1.1,11.1,3.4c2.6,2.3,3.9,5.5,3.9,9.9v8.1c0,1,0.2,1.6,0.5,2
		c0.4,0.4,1,0.6,1.9,0.7v8.1c-0.9,0.2-1.8,0.3-2.6,0.4c-0.8,0.1-1.5,0.1-2.1,0.1c-1.8,0-3.1-0.4-4-1.1c-0.9-0.7-1.5-1.7-1.7-3
		l-0.2-1.4c-1.4,1.8-3.1,3.2-5,4.2C374.8,114,372.7,114.5,370.6,114.5z M373.4,107.6c1,0,2.1-0.2,3-0.5c1-0.4,1.8-0.8,2.4-1.4
		c0.9-0.7,1.4-1.5,1.4-2.3v-3c-0.8-0.3-1.8-0.6-2.7-0.8c-1-0.2-1.9-0.3-2.7-0.3c-1.8,0-3.2,0.4-4.4,1.2c-1.1,0.8-1.7,1.8-1.7,3.1
		c0,1.2,0.4,2.1,1.3,2.9C370.9,107.2,372,107.6,373.4,107.6z"/>
	<path class="st14" d="M417.1,90.5c-2.3,0-4.4,0.4-6.3,1.1c-1.9,0.7-3.2,1.8-4.1,3.3v19h-9.6V82.3h8.9v6.4c1.1-2.1,2.5-3.8,4.2-5
		c1.7-1.2,3.5-1.8,5.5-1.9c0.8,0,1.3,0,1.5,0.1V90.5z"/>
	<path class="st14" d="M433.9,114.5c-2.2,0-4.2-0.4-6-1.2c-1.8-0.8-3.4-2-4.7-3.5c-1.3-1.5-2.4-3.2-3.1-5.2c-0.7-2-1.1-4.2-1.1-6.5
		c0-2.3,0.3-4.4,1-6.4c0.7-2,1.6-3.7,2.9-5.2c1.2-1.5,2.7-2.6,4.4-3.5c1.7-0.8,3.6-1.3,5.6-1.3c2.2,0,4.2,0.5,6,1.6
		c1.8,1,3.2,2.5,4.2,4.2V69.9h9.6v33.1c0,1,0.2,1.6,0.5,2c0.4,0.4,1,0.6,1.9,0.7v8.1c-1,0.2-1.9,0.3-2.6,0.4c-0.7,0.1-1.4,0.1-2,0.1
		c-3.4-0.1-5.3-1.4-5.8-4l-0.2-1.7c-1.2,2-2.7,3.4-4.6,4.4C438.1,114,436,114.5,433.9,114.5z M436.5,106.4c1.3,0,2.6-0.4,3.8-1.2
		c1.2-0.8,2.1-1.9,2.8-3.2v-6.6c-0.6-1.6-1.6-2.9-2.9-3.9c-1.3-1-2.7-1.5-4.2-1.5c-1,0-2,0.2-2.9,0.7c-0.9,0.5-1.6,1.1-2.3,1.8
		c-0.6,0.8-1.1,1.6-1.5,2.7c-0.3,1-0.5,2.1-0.5,3.2c0,2.4,0.7,4.3,2.1,5.8C432.4,105.6,434.2,106.4,436.5,106.4z"/>
	<path class="st14" d="M460.4,78.7v-8.7h9.6v8.7H460.4z M460.4,113.9V82.3h9.6v31.6H460.4z"/>
</g>
</svg>
